<svg width="177" height="33" viewBox="0 0 177 33" fill="none" xmlns="http://www.w3.org/2000/svg">
<path d="M20.9775 0H9.24871C8.0378 0 6.92004 0.644982 6.31458 1.70182L0.454091 11.8661C-0.151364 12.9152 -0.151364 14.2129 0.454091 15.262L6.41549 25.6283C7.02095 26.6774 8.18529 27.2991 9.3962 27.2991H15.2334L7.30815 13.5679L11.2126 6.79951H19.0214L22.9258 13.5679L18.2141 21.7351H26.054L29.7876 15.262C30.3931 14.2129 30.3931 12.9152 29.7876 11.8661L23.9194 1.70182C23.3139 0.644982 22.1961 0 20.9775 0Z" fill="#FF7023"/>
<path d="M50.5826 3.67562H40.3985V8.47801H48.2461V11.8739H40.3985V18.0595H50.7533V21.7351H37.7205L35.7722 18.3548V0H50.5826V3.67562Z" fill="#2D2A27"/>
<path d="M50.7223 5.15196V4.98877H55.2554L58.8105 18.0438H59.4703L63.0487 4.98877H67.1627V5.15196L62.3812 21.7272H55.5038L50.7223 5.15196Z" fill="#2D2A27"/>
<path d="M70.6867 21.0824C69.4835 20.3753 68.5754 19.3573 67.9699 18.0362C67.3567 16.7152 67.054 15.1455 67.054 13.3271C67.054 11.5087 67.3567 9.94678 67.9699 8.6335C68.5831 7.32022 69.4835 6.31778 70.6789 5.6184C71.8743 4.91903 73.3258 4.56934 75.018 4.56934C77.4786 4.56934 79.3649 5.33088 80.6767 6.8462C81.9885 8.36152 82.6483 10.5762 82.6483 13.4747V14.415H71.4008C71.5017 15.8449 71.8665 16.9561 72.503 17.7643C73.1395 18.5647 73.9934 18.9688 75.0724 18.9688C76.1513 18.9688 76.5627 18.7201 77.1061 18.2305C77.6494 17.741 78.0065 17.1193 78.1772 16.3733H82.431C82.2524 17.4457 81.8721 18.417 81.2899 19.2874C80.7077 20.1577 79.8927 20.8493 78.8526 21.3699C77.8124 21.8906 76.5472 22.147 75.0724 22.147C73.5975 22.147 71.8898 21.7896 70.6867 21.0824ZM77.3389 8.61019C76.7878 7.92635 76.0038 7.57666 74.987 7.57666C73.9701 7.57666 73.1396 7.91081 72.5341 8.57133C71.9209 9.23186 71.5405 10.2343 71.4008 11.5553H78.2937C78.2083 10.2732 77.8823 9.28625 77.3312 8.60242L77.3389 8.61019Z" fill="#2D2A27"/>
<path d="M84.4182 4.98877H87.1272L88.5477 7.49876H89.2075L90.6435 4.98877H94.5635V8.71879H93.1275C92.033 8.71879 91.1791 8.90529 90.5659 9.28606C89.9449 9.66683 89.5102 10.2419 89.2619 11.0112C89.0057 11.7805 88.8815 12.8063 88.8815 14.0729V21.7194H84.4182V4.98877Z" fill="#2D2A27"/>
<path d="M96.2555 4.98893H99.1508L100.393 7.16477H101.053C101.464 6.39546 102.046 5.78156 102.807 5.33085C103.568 4.88014 104.53 4.65479 105.687 4.65479C106.843 4.65479 108.38 5.02779 109.366 5.76602C110.352 6.50425 111.089 7.53778 111.578 8.84328C112.059 10.1566 112.308 11.6719 112.308 13.3892C112.308 15.1066 112.059 16.653 111.563 17.9507C111.066 19.2485 110.321 20.2587 109.327 20.9814C108.334 21.7041 107.123 22.0615 105.687 22.0615C104.251 22.0615 102.256 21.3388 101.386 19.8857H100.727V27.2991H96.2633V4.98893H96.2555ZM106.812 17.4767C107.387 16.5364 107.674 15.1688 107.674 13.3582C107.674 11.5475 107.387 10.1799 106.812 9.2396C106.238 8.29932 105.438 7.83307 104.414 7.83307C103.389 7.83307 103.024 8.05842 102.473 8.50913C101.914 8.95985 101.487 9.60483 101.185 10.4363C100.882 11.2678 100.727 12.2392 100.727 13.3582C100.727 14.4772 100.882 15.4485 101.185 16.2878C101.487 17.127 101.914 17.7642 102.473 18.2149C103.032 18.6579 103.676 18.8832 104.414 18.8832C105.151 18.8832 106.238 18.417 106.812 17.4767Z" fill="#2D2A27"/>
<path d="M115.234 20.4139C114.279 19.2561 113.806 17.6631 113.806 15.6193V4.98877H118.269V14.8655C118.269 17.2667 119.123 18.4635 120.831 18.4635C122.538 18.4635 122.143 18.2692 122.655 17.8884C123.167 17.5076 123.555 16.9714 123.819 16.2954C124.083 15.6193 124.215 14.8655 124.215 14.0263V4.98877H128.678V21.7272H126.101L124.665 19.2172H124.005C123.711 20.1109 123.175 20.818 122.422 21.3542C121.661 21.8826 120.644 22.1468 119.379 22.1468C117.571 22.1468 116.189 21.5718 115.234 20.4139Z" fill="#2D2A27"/>
<path d="M130.541 4.98877H133.25L134.671 7.49876H135.331L136.767 4.98877H140.687V8.71879H139.251C138.156 8.71879 137.302 8.90529 136.689 9.28606C136.068 9.66683 135.633 10.2419 135.385 11.0112C135.129 11.7805 135.005 12.8063 135.005 14.0729V21.7194H130.541V4.98877Z" fill="#2D2A27"/>
<path d="M144.552 21.0824C143.349 20.3753 142.441 19.3573 141.828 18.0362C141.214 16.7152 140.912 15.1455 140.912 13.3271C140.912 11.5087 141.214 9.94678 141.828 8.6335C142.441 7.32022 143.341 6.31778 144.537 5.6184C145.732 4.91903 147.184 4.56934 148.876 4.56934C151.336 4.56934 153.223 5.33088 154.534 6.8462C155.846 8.36152 156.506 10.5762 156.506 13.4747V14.415H145.259C145.36 15.8449 145.724 16.9561 146.361 17.7643C146.997 18.5647 147.851 18.9688 148.93 18.9688C150.009 18.9688 150.42 18.7201 150.964 18.2305C151.499 17.741 151.864 17.1193 152.035 16.3733H156.289C156.11 17.4457 155.73 18.417 155.148 19.2874C154.566 20.1577 153.75 20.8493 152.71 21.3699C151.67 21.8906 150.405 22.147 148.93 22.147C147.455 22.147 145.748 21.7896 144.544 21.0824H144.552ZM151.197 8.61019C150.646 7.92635 149.862 7.57666 148.845 7.57666C147.828 7.57666 146.997 7.91081 146.392 8.57133C145.779 9.23186 145.398 10.2343 145.259 11.5553H152.151C152.066 10.2732 151.74 9.28625 151.189 8.60242L151.197 8.61019Z" fill="#2D2A27"/>
<path d="M154.93 2.99172H154.309V2.81299H155.769V2.99172H155.148V4.678H154.93V2.99172Z" fill="#2D2A27"/>
<path d="M155.986 2.81299H156.39L156.941 4.49927H156.987L157.554 2.81299H157.95V4.678H157.733V2.99949H157.686L157.135 4.678H156.786L156.234 2.99949H156.188V4.678H155.986V2.81299Z" fill="#2D2A27"/>
<path d="M105.023 27.56H104.435V27H105.023V26.64L105.583 25.668H106.371V26.248C106.331 26.2347 106.264 26.228 106.171 26.228C106.045 26.228 105.949 26.2493 105.883 26.292C105.816 26.332 105.771 26.3893 105.747 26.464C105.725 26.536 105.715 26.6307 105.715 26.748V27H106.371V27.56H105.715V31H105.023V27.56ZM108.602 31.1C108.007 31.1 107.558 30.9147 107.254 30.544C106.953 30.1707 106.802 29.656 106.802 29C106.802 28.3413 106.953 27.8267 107.254 27.456C107.558 27.0853 108.007 26.9 108.602 26.9C109.197 26.9 109.645 27.0867 109.946 27.46C110.25 27.8307 110.402 28.344 110.402 29C110.402 29.6587 110.25 30.1733 109.946 30.544C109.645 30.9147 109.197 31.1 108.602 31.1ZM108.602 30.512C108.962 30.512 109.23 30.38 109.406 30.116C109.582 29.852 109.67 29.48 109.67 29C109.67 28.52 109.581 28.148 109.402 27.884C109.226 27.62 108.959 27.488 108.602 27.488C108.242 27.488 107.974 27.62 107.798 27.884C107.625 28.148 107.538 28.52 107.538 29C107.538 29.48 107.626 29.852 107.802 30.116C107.978 30.38 108.245 30.512 108.602 30.512ZM111.224 27H111.596L111.896 27.52H112.056L112.356 27H113.236V27.628H112.904C112.56 27.628 112.314 27.7387 112.164 27.96C112.018 28.1787 111.944 28.4947 111.944 28.908V31H111.224V27ZM113.948 27H114.32L114.62 27.52H114.78C114.866 27.32 114.992 27.1667 115.16 27.06C115.328 26.9533 115.532 26.9 115.772 26.9C116.042 26.9 116.267 26.9547 116.448 27.064C116.63 27.1707 116.771 27.3227 116.872 27.52H117.032C117.134 27.3173 117.276 27.164 117.46 27.06C117.647 26.9533 117.871 26.9 118.132 26.9C118.554 26.9 118.868 27.0387 119.076 27.316C119.284 27.5933 119.388 27.9653 119.388 28.432V31H118.668V28.588C118.668 27.8707 118.435 27.512 117.968 27.512C117.774 27.512 117.606 27.5707 117.464 27.688C117.323 27.8027 117.215 27.9613 117.14 28.164C117.066 28.3667 117.028 28.5947 117.028 28.848V31H116.308V28.588C116.308 27.8707 116.075 27.512 115.608 27.512C115.414 27.512 115.246 27.5707 115.104 27.688C114.963 27.8027 114.855 27.9613 114.78 28.164C114.706 28.3667 114.668 28.5947 114.668 28.848V31H113.948V27ZM121.939 31.1C121.555 31.1 121.228 31.0133 120.959 30.84C120.689 30.6667 120.485 30.4227 120.347 30.108C120.211 29.7907 120.143 29.4213 120.143 29C120.143 28.5813 120.211 28.2147 120.347 27.9C120.483 27.5827 120.684 27.3373 120.951 27.164C121.22 26.988 121.547 26.9 121.931 26.9C122.477 26.9 122.893 27.0773 123.179 27.432C123.467 27.7867 123.611 28.3027 123.611 28.98V29.188H120.843C120.864 29.5933 120.968 29.9187 121.155 30.164C121.344 30.4067 121.607 30.528 121.943 30.528C122.191 30.528 122.393 30.4587 122.551 30.32C122.711 30.1813 122.824 29.9813 122.891 29.72H123.571C123.48 30.1493 123.3 30.4867 123.031 30.732C122.761 30.9773 122.397 31.1 121.939 31.1ZM122.911 28.668C122.897 28.284 122.804 27.9893 122.631 27.784C122.457 27.576 122.221 27.472 121.923 27.472C121.611 27.472 121.364 27.576 121.183 27.784C121.001 27.9893 120.891 28.284 120.851 28.668H122.911ZM124.432 27H124.804L125.104 27.52H125.264L125.564 27H126.444V27.628H126.112C125.768 27.628 125.521 27.7387 125.372 27.96C125.225 28.1787 125.152 28.4947 125.152 28.908V31H124.432V27ZM127.12 30.248V25.668H127.84V30L128.396 30.96V31H127.556L127.12 30.248ZM128.975 32.288L129.907 30.712L128.499 27.04V27H129.219L130.227 29.808H130.387L131.395 27H132.059V27.04L130.655 30.712L129.719 32.332H128.975V32.288ZM134.255 25.8H136.111C136.754 25.8 137.231 25.9333 137.543 26.2C137.858 26.464 138.015 26.8333 138.015 27.308C138.015 27.78 137.858 28.1493 137.543 28.416C137.228 28.68 136.751 28.812 136.111 28.812H135.003V31H134.255V25.8ZM136.075 28.212C136.488 28.212 136.788 28.14 136.975 27.996C137.162 27.8493 137.255 27.62 137.255 27.308C137.255 26.996 137.162 26.7667 136.975 26.62C136.788 26.4733 136.488 26.4 136.075 26.4H135.003V28.212H136.075ZM140.052 31.1C139.604 31.1 139.269 30.9613 139.048 30.684C138.826 30.4067 138.716 30.0347 138.716 29.568V27H139.436V29.412C139.436 30.1293 139.692 30.488 140.204 30.488C140.414 30.488 140.597 30.4307 140.752 30.316C140.909 30.1987 141.029 30.0387 141.112 29.836C141.194 29.6333 141.236 29.4053 141.236 29.152V27H141.956V31H141.584L141.284 30.48H141.124C141.038 30.6827 140.905 30.8373 140.724 30.944C140.542 31.048 140.318 31.1 140.052 31.1ZM143.051 27H143.423L143.723 27.52H143.883L144.183 27H145.063V27.628H144.731C144.387 27.628 144.14 27.7387 143.991 27.96C143.844 28.1787 143.771 28.4947 143.771 28.908V31H143.051V27ZM147.162 31.1C146.778 31.1 146.451 31.0133 146.182 30.84C145.913 30.6667 145.709 30.4227 145.57 30.108C145.434 29.7907 145.366 29.4213 145.366 29C145.366 28.5813 145.434 28.2147 145.57 27.9C145.706 27.5827 145.907 27.3373 146.174 27.164C146.443 26.988 146.77 26.9 147.154 26.9C147.701 26.9 148.117 27.0773 148.402 27.432C148.69 27.7867 148.834 28.3027 148.834 28.98V29.188H146.066C146.087 29.5933 146.191 29.9187 146.378 30.164C146.567 30.4067 146.83 30.528 147.166 30.528C147.414 30.528 147.617 30.4587 147.774 30.32C147.934 30.1813 148.047 29.9813 148.114 29.72H148.794C148.703 30.1493 148.523 30.4867 148.254 30.732C147.985 30.9773 147.621 31.1 147.162 31.1ZM148.134 28.668C148.121 28.284 148.027 27.9893 147.854 27.784C147.681 27.576 147.445 27.472 147.146 27.472C146.834 27.472 146.587 27.576 146.406 27.784C146.225 27.9893 146.114 28.284 146.074 28.668H148.134ZM152.988 31.1C152.554 31.1 152.182 31.02 151.872 30.86C151.566 30.7 151.328 30.4827 151.16 30.208C150.995 29.9307 150.9 29.6173 150.876 29.268H151.596C151.61 29.484 151.671 29.6867 151.78 29.876C151.892 30.0627 152.052 30.2133 152.26 30.328C152.471 30.4427 152.726 30.5 153.024 30.5C153.36 30.5 153.624 30.4267 153.816 30.28C154.008 30.1307 154.104 29.9267 154.104 29.668C154.104 29.428 154.02 29.2373 153.852 29.096C153.684 28.9547 153.443 28.832 153.128 28.728L152.628 28.56C152.319 28.456 152.059 28.3493 151.848 28.24C151.638 28.128 151.463 27.9773 151.324 27.788C151.186 27.5987 151.116 27.3627 151.116 27.08C151.116 26.7947 151.187 26.548 151.328 26.34C151.47 26.132 151.667 25.9733 151.92 25.864C152.176 25.7547 152.471 25.7 152.804 25.7C153.194 25.7 153.52 25.7693 153.784 25.908C154.048 26.0467 154.248 26.2347 154.384 26.472C154.523 26.7067 154.603 26.972 154.624 27.268H153.904C153.883 26.9907 153.78 26.76 153.596 26.576C153.412 26.392 153.139 26.3 152.776 26.3C152.488 26.3 152.259 26.364 152.088 26.492C151.92 26.6173 151.836 26.7907 151.836 27.012C151.836 27.2413 151.923 27.424 152.096 27.56C152.272 27.696 152.522 27.816 152.844 27.92L153.348 28.088C153.65 28.1867 153.904 28.292 154.112 28.404C154.32 28.516 154.491 28.6693 154.624 28.864C154.758 29.056 154.824 29.2987 154.824 29.592C154.824 29.9067 154.748 30.1773 154.596 30.404C154.447 30.6307 154.234 30.804 153.956 30.924C153.682 31.0413 153.359 31.1 152.988 31.1ZM155.827 27.56H155.279V27H155.839V26H156.535V27H157.215V27.56H156.547V30L157.099 30.96V31H156.259L155.827 30.248V27.56ZM159.446 31.1C158.851 31.1 158.402 30.9147 158.098 30.544C157.796 30.1707 157.646 29.656 157.646 29C157.646 28.3413 157.796 27.8267 158.098 27.456C158.402 27.0853 158.851 26.9 159.446 26.9C160.04 26.9 160.488 27.0867 160.79 27.46C161.094 27.8307 161.246 28.344 161.246 29C161.246 29.6587 161.094 30.1733 160.79 30.544C160.488 30.9147 160.04 31.1 159.446 31.1ZM159.446 30.512C159.806 30.512 160.074 30.38 160.25 30.116C160.426 29.852 160.514 29.48 160.514 29C160.514 28.52 160.424 28.148 160.246 27.884C160.07 27.62 159.803 27.488 159.446 27.488C159.086 27.488 158.818 27.62 158.642 27.884C158.468 28.148 158.382 28.52 158.382 29C158.382 29.48 158.47 29.852 158.646 30.116C158.822 30.38 159.088 30.512 159.446 30.512ZM162.068 27H162.44L162.74 27.52H162.9L163.2 27H164.08V27.628H163.748C163.404 27.628 163.157 27.7387 163.008 27.96C162.861 28.1787 162.788 28.4947 162.788 28.908V31H162.068V27ZM165.999 31.1C165.661 31.1 165.37 31.0147 165.127 30.844C164.885 30.6707 164.699 30.4267 164.571 30.112C164.446 29.7973 164.383 29.4267 164.383 29C164.383 28.576 164.446 28.2067 164.571 27.892C164.699 27.5747 164.885 27.3307 165.127 27.16C165.373 26.9867 165.667 26.9 166.011 26.9C166.286 26.9 166.515 26.96 166.699 27.08C166.883 27.1973 167.011 27.344 167.083 27.52H167.239L167.539 27H167.911V31H167.539L167.239 30.48H167.083C167.011 30.656 166.882 30.804 166.695 30.924C166.511 31.0413 166.279 31.1 165.999 31.1ZM166.123 30.5C166.342 30.5 166.534 30.4387 166.699 30.316C166.865 30.1907 166.991 30.0147 167.079 29.788C167.167 29.5613 167.211 29.2987 167.211 29C167.211 28.7013 167.167 28.4387 167.079 28.212C166.991 27.9853 166.865 27.8107 166.699 27.688C166.534 27.5627 166.342 27.5 166.123 27.5C165.803 27.5 165.555 27.632 165.379 27.896C165.206 28.1573 165.119 28.5253 165.119 29C165.119 29.4773 165.206 29.8467 165.379 30.108C165.555 30.3693 165.803 30.5 166.123 30.5ZM170.501 32.428C170.146 32.428 169.853 32.3707 169.621 32.256C169.391 32.144 169.221 32.0013 169.109 31.828C168.999 31.6573 168.93 31.4747 168.901 31.28H169.621C169.653 31.4507 169.743 31.5907 169.893 31.7C170.045 31.812 170.259 31.868 170.537 31.868C171.206 31.868 171.541 31.492 171.541 30.74V30.292H171.381C171.303 30.4813 171.177 30.632 171.001 30.744C170.825 30.856 170.598 30.912 170.321 30.912C169.995 30.912 169.711 30.8307 169.469 30.668C169.229 30.5053 169.043 30.272 168.913 29.968C168.785 29.664 168.721 29.3053 168.721 28.892C168.721 28.4867 168.783 28.1347 168.909 27.836C169.037 27.5347 169.219 27.304 169.457 27.144C169.697 26.9813 169.981 26.9 170.309 26.9C170.583 26.9 170.805 26.9573 170.973 27.072C171.141 27.1867 171.266 27.336 171.349 27.52H171.509L171.809 27H172.181V30.78C172.181 31.3133 172.035 31.7213 171.745 32.004C171.457 32.2867 171.042 32.428 170.501 32.428ZM170.409 30.312C170.63 30.312 170.821 30.2533 170.981 30.136C171.143 30.016 171.267 29.8493 171.353 29.636C171.438 29.4227 171.481 29.18 171.481 28.908C171.481 28.6307 171.438 28.3853 171.353 28.172C171.267 27.9587 171.145 27.7933 170.985 27.676C170.825 27.5587 170.635 27.5 170.417 27.5C170.105 27.5 169.863 27.6227 169.693 27.868C169.525 28.1133 169.441 28.46 169.441 28.908C169.441 29.356 169.525 29.7027 169.693 29.948C169.861 30.1907 170.099 30.312 170.409 30.312ZM174.784 31.1C174.4 31.1 174.073 31.0133 173.804 30.84C173.535 30.6667 173.331 30.4227 173.192 30.108C173.056 29.7907 172.988 29.4213 172.988 29C172.988 28.5813 173.056 28.2147 173.192 27.9C173.328 27.5827 173.529 27.3373 173.796 27.164C174.065 26.988 174.392 26.9 174.776 26.9C175.323 26.9 175.739 27.0773 176.024 27.432C176.312 27.7867 176.456 28.3027 176.456 28.98V29.188H173.688C173.709 29.5933 173.813 29.9187 174 30.164C174.189 30.4067 174.452 30.528 174.788 30.528C175.036 30.528 175.239 30.4587 175.396 30.32C175.556 30.1813 175.669 29.9813 175.736 29.72H176.416C176.325 30.1493 176.145 30.4867 175.876 30.732C175.607 30.9773 175.243 31.1 174.784 31.1ZM175.756 28.668C175.743 28.284 175.649 27.9893 175.476 27.784C175.303 27.576 175.067 27.472 174.768 27.472C174.456 27.472 174.209 27.576 174.028 27.784C173.847 27.9893 173.736 28.284 173.696 28.668H175.756Z" fill="#2D2A27"/>
</svg>
