<svg xmlns="http://www.w3.org/2000/svg" viewBox="0 0 130 24">
  <g transform="scale(0.16)">
    <path d="m52.16 38.23h-8.84c-2.81 0-5.09-2.28-5.09-5.09v-13.04c0-2.81 2.28-5.09 5.09-5.09h13.04c2.81 0 5.09 2.28 5.09 5.09v9.34c0 4.86 3.94 8.79 8.79 8.79h28.8c7.03 0 12.73 5.7 12.73 12.73v24.87c0 7.03-5.7 12.73-12.73 12.73h-24.87c-7.03 0-12.73-5.7-12.73-12.73v-24.87s0-.09 0-.13v-3.31c0-5.13-4.16-9.29-9.29-9.29z" fill="#111111"/>
    <path d="m97.84 111.77h8.84c2.81 0 5.09 2.28 5.09 5.09v13.04c0 2.81-2.28 5.09-5.09 5.09h-13.04c-2.81 0-5.09-2.28-5.09-5.09v-9.34c0-4.86-3.94-8.79-8.79-8.79h-28.8c-7.03 0-12.73-5.7-12.73-12.73v-24.87c0-7.03 5.7-12.73 12.73-12.73h24.87c7.03 0 12.73 5.7 12.73 12.73v24.87s0 .09 0 .13v3.31c0 5.13 4.16 9.29 9.29 9.29z" fill="#111111"/>
    <path d="m74.18 88.55h14.37v-14.37c0-7.03-5.7-12.73-12.73-12.73h-14.37v14.37c0 7.03 5.7 12.73 12.73 12.73z" fill="#111111"/>
  </g>
  <text x="28" y="20" font-family="Arial,Helvetica,sans-serif" font-size="18" font-weight="bold" fill="#111111">Qumulo</text>
</svg>
