<svg xmlns="http://www.w3.org/2000/svg" width="84" height="17" fill="none" viewBox="0 0 84 17"><path fill="#FFFFFF" d="m15.115.74-.99-.473a1.16 1.16 0 0 0-1.543.547c0 .007-.008.007-.008.015l-.28.524L7.95 10.65 3.61 1.353 3.329.829a1.156 1.156 0 0 0-1.536-.57c-.007 0-.007.008-.015.008L.781.74c-.59.288-.857.997-.59 1.603l.243.48 5.908 12.641a1.74 1.74 0 0 0 1.573 1.005h.051c.672 0 1.285-.392 1.573-1.005l5.908-12.642.244-.48c.287-.583 0-1.321-.577-1.602M24.433 15.886l.99.472a1.16 1.16 0 0 0 1.543-.546c0-.007.008-.007.008-.015l.28-.524 4.342-9.297 4.342 9.297.28.524c.267.583.953.834 1.537.569.007 0 .007-.008.015-.008l.989-.473c.584-.28.864-1.011.59-1.602l-.243-.48L33.2 1.161A1.74 1.74 0 0 0 31.626.157h-.052a1.74 1.74 0 0 0-1.573 1.004l-5.907 12.642-.244.48c-.296.59-.007 1.33.583 1.603M59.657 3.642a1.167 1.167 0 0 0 1.219-1.093v-.015l.036-1.092c.022-.643-.495-1.24-1.144-1.27l-.599-.008h-6.94c-1.803.118-4.49 1.418-4.49 4.505 0 3.138 2.65 4.541 4.076 4.851l3.559.857q.078.02.155.03c.184.029 1.13.22 1.13 1.277 0 .635-.318 1.011-.953 1.115H49.01l-.458.007a1.167 1.167 0 0 0-1.219 1.093v.015l-.037 1.093c-.022.642.495 1.24 1.145 1.27l.569.007h6.823c.051 0 .11 0 .162-.007 1.669-.155 4.157-1.507 4.157-4.6 0-3.198-2.584-4.476-4.024-4.72l-3.515-.841-.052-.015c-.051-.015-1.329-.295-1.329-1.44 0-.76.731-.967 1.196-1.019zM83.25 1.309c0-.635-.517-1.152-1.16-1.152H70.026a1.16 1.16 0 0 0-1.182 1.13v1.13c0 .65.54 1.218 1.19 1.233h4.275v11.453a1.16 1.16 0 0 0 1.13 1.181h1.13c.65 0 1.218-.539 1.233-1.189V3.65h4.275c.65-.008 1.19-.584 1.19-1.234z"/></svg>